<?xml version="1.0" standalone="no"?>
<!DOCTYPE svg PUBLIC "-//W3C//DTD SVG 1.1//EN" "http://www.w3.org/Graphics/SVG/1.1/DTD/svg11.dtd">
<svg width="186" height="186" version="1.1" xmlns="http://www.w3.org/2000/svg">
	<desc>https://www.qrtag.net/api/ac2a6a33</desc>
	<g id="elements" fill="#ffffff" stroke="none">
		<rect x="0" y="0" width="186" height="186" />
	</g>
	<g id="elements" fill="#000000" stroke="none">
		<rect x="6" y="6" width="6" height="6" />
		<rect x="12" y="6" width="6" height="6" />
		<rect x="18" y="6" width="6" height="6" />
		<rect x="24" y="6" width="6" height="6" />
		<rect x="30" y="6" width="6" height="6" />
		<rect x="36" y="6" width="6" height="6" />
		<rect x="42" y="6" width="6" height="6" />
		<rect x="72" y="6" width="6" height="6" />
		<rect x="78" y="6" width="6" height="6" />
		<rect x="84" y="6" width="6" height="6" />
		<rect x="102" y="6" width="6" height="6" />
		<rect x="114" y="6" width="6" height="6" />
		<rect x="120" y="6" width="6" height="6" />
		<rect x="138" y="6" width="6" height="6" />
		<rect x="144" y="6" width="6" height="6" />
		<rect x="150" y="6" width="6" height="6" />
		<rect x="156" y="6" width="6" height="6" />
		<rect x="162" y="6" width="6" height="6" />
		<rect x="168" y="6" width="6" height="6" />
		<rect x="174" y="6" width="6" height="6" />
		<rect x="6" y="12" width="6" height="6" />
		<rect x="42" y="12" width="6" height="6" />
		<rect x="60" y="12" width="6" height="6" />
		<rect x="66" y="12" width="6" height="6" />
		<rect x="72" y="12" width="6" height="6" />
		<rect x="84" y="12" width="6" height="6" />
		<rect x="90" y="12" width="6" height="6" />
		<rect x="96" y="12" width="6" height="6" />
		<rect x="108" y="12" width="6" height="6" />
		<rect x="126" y="12" width="6" height="6" />
		<rect x="138" y="12" width="6" height="6" />
		<rect x="174" y="12" width="6" height="6" />
		<rect x="6" y="18" width="6" height="6" />
		<rect x="18" y="18" width="6" height="6" />
		<rect x="24" y="18" width="6" height="6" />
		<rect x="30" y="18" width="6" height="6" />
		<rect x="42" y="18" width="6" height="6" />
		<rect x="60" y="18" width="6" height="6" />
		<rect x="84" y="18" width="6" height="6" />
		<rect x="102" y="18" width="6" height="6" />
		<rect x="108" y="18" width="6" height="6" />
		<rect x="120" y="18" width="6" height="6" />
		<rect x="126" y="18" width="6" height="6" />
		<rect x="138" y="18" width="6" height="6" />
		<rect x="150" y="18" width="6" height="6" />
		<rect x="156" y="18" width="6" height="6" />
		<rect x="162" y="18" width="6" height="6" />
		<rect x="174" y="18" width="6" height="6" />
		<rect x="6" y="24" width="6" height="6" />
		<rect x="18" y="24" width="6" height="6" />
		<rect x="24" y="24" width="6" height="6" />
		<rect x="30" y="24" width="6" height="6" />
		<rect x="42" y="24" width="6" height="6" />
		<rect x="60" y="24" width="6" height="6" />
		<rect x="72" y="24" width="6" height="6" />
		<rect x="84" y="24" width="6" height="6" />
		<rect x="90" y="24" width="6" height="6" />
		<rect x="96" y="24" width="6" height="6" />
		<rect x="114" y="24" width="6" height="6" />
		<rect x="138" y="24" width="6" height="6" />
		<rect x="150" y="24" width="6" height="6" />
		<rect x="156" y="24" width="6" height="6" />
		<rect x="162" y="24" width="6" height="6" />
		<rect x="174" y="24" width="6" height="6" />
		<rect x="6" y="30" width="6" height="6" />
		<rect x="18" y="30" width="6" height="6" />
		<rect x="24" y="30" width="6" height="6" />
		<rect x="30" y="30" width="6" height="6" />
		<rect x="42" y="30" width="6" height="6" />
		<rect x="60" y="30" width="6" height="6" />
		<rect x="72" y="30" width="6" height="6" />
		<rect x="84" y="30" width="6" height="6" />
		<rect x="90" y="30" width="6" height="6" />
		<rect x="102" y="30" width="6" height="6" />
		<rect x="126" y="30" width="6" height="6" />
		<rect x="138" y="30" width="6" height="6" />
		<rect x="150" y="30" width="6" height="6" />
		<rect x="156" y="30" width="6" height="6" />
		<rect x="162" y="30" width="6" height="6" />
		<rect x="174" y="30" width="6" height="6" />
		<rect x="6" y="36" width="6" height="6" />
		<rect x="42" y="36" width="6" height="6" />
		<rect x="54" y="36" width="6" height="6" />
		<rect x="66" y="36" width="6" height="6" />
		<rect x="72" y="36" width="6" height="6" />
		<rect x="78" y="36" width="6" height="6" />
		<rect x="84" y="36" width="6" height="6" />
		<rect x="90" y="36" width="6" height="6" />
		<rect x="120" y="36" width="6" height="6" />
		<rect x="126" y="36" width="6" height="6" />
		<rect x="138" y="36" width="6" height="6" />
		<rect x="174" y="36" width="6" height="6" />
		<rect x="6" y="42" width="6" height="6" />
		<rect x="12" y="42" width="6" height="6" />
		<rect x="18" y="42" width="6" height="6" />
		<rect x="24" y="42" width="6" height="6" />
		<rect x="30" y="42" width="6" height="6" />
		<rect x="36" y="42" width="6" height="6" />
		<rect x="42" y="42" width="6" height="6" />
		<rect x="54" y="42" width="6" height="6" />
		<rect x="66" y="42" width="6" height="6" />
		<rect x="78" y="42" width="6" height="6" />
		<rect x="90" y="42" width="6" height="6" />
		<rect x="102" y="42" width="6" height="6" />
		<rect x="114" y="42" width="6" height="6" />
		<rect x="126" y="42" width="6" height="6" />
		<rect x="138" y="42" width="6" height="6" />
		<rect x="144" y="42" width="6" height="6" />
		<rect x="150" y="42" width="6" height="6" />
		<rect x="156" y="42" width="6" height="6" />
		<rect x="162" y="42" width="6" height="6" />
		<rect x="168" y="42" width="6" height="6" />
		<rect x="174" y="42" width="6" height="6" />
		<rect x="66" y="48" width="6" height="6" />
		<rect x="78" y="48" width="6" height="6" />
		<rect x="90" y="48" width="6" height="6" />
		<rect x="108" y="48" width="6" height="6" />
		<rect x="126" y="48" width="6" height="6" />
		<rect x="6" y="54" width="6" height="6" />
		<rect x="24" y="54" width="6" height="6" />
		<rect x="36" y="54" width="6" height="6" />
		<rect x="42" y="54" width="6" height="6" />
		<rect x="54" y="54" width="6" height="6" />
		<rect x="60" y="54" width="6" height="6" />
		<rect x="96" y="54" width="6" height="6" />
		<rect x="102" y="54" width="6" height="6" />
		<rect x="126" y="54" width="6" height="6" />
		<rect x="132" y="54" width="6" height="6" />
		<rect x="144" y="54" width="6" height="6" />
		<rect x="6" y="60" width="6" height="6" />
		<rect x="12" y="60" width="6" height="6" />
		<rect x="24" y="60" width="6" height="6" />
		<rect x="36" y="60" width="6" height="6" />
		<rect x="60" y="60" width="6" height="6" />
		<rect x="66" y="60" width="6" height="6" />
		<rect x="90" y="60" width="6" height="6" />
		<rect x="96" y="60" width="6" height="6" />
		<rect x="126" y="60" width="6" height="6" />
		<rect x="138" y="60" width="6" height="6" />
		<rect x="156" y="60" width="6" height="6" />
		<rect x="174" y="60" width="6" height="6" />
		<rect x="6" y="66" width="6" height="6" />
		<rect x="30" y="66" width="6" height="6" />
		<rect x="36" y="66" width="6" height="6" />
		<rect x="42" y="66" width="6" height="6" />
		<rect x="48" y="66" width="6" height="6" />
		<rect x="66" y="66" width="6" height="6" />
		<rect x="102" y="66" width="6" height="6" />
		<rect x="114" y="66" width="6" height="6" />
		<rect x="120" y="66" width="6" height="6" />
		<rect x="156" y="66" width="6" height="6" />
		<rect x="162" y="66" width="6" height="6" />
		<rect x="168" y="66" width="6" height="6" />
		<rect x="24" y="72" width="6" height="6" />
		<rect x="30" y="72" width="6" height="6" />
		<rect x="36" y="72" width="6" height="6" />
		<rect x="54" y="72" width="6" height="6" />
		<rect x="60" y="72" width="6" height="6" />
		<rect x="90" y="72" width="6" height="6" />
		<rect x="114" y="72" width="6" height="6" />
		<rect x="120" y="72" width="6" height="6" />
		<rect x="144" y="72" width="6" height="6" />
		<rect x="150" y="72" width="6" height="6" />
		<rect x="162" y="72" width="6" height="6" />
		<rect x="168" y="72" width="6" height="6" />
		<rect x="6" y="78" width="6" height="6" />
		<rect x="12" y="78" width="6" height="6" />
		<rect x="30" y="78" width="6" height="6" />
		<rect x="42" y="78" width="6" height="6" />
		<rect x="54" y="78" width="6" height="6" />
		<rect x="72" y="78" width="6" height="6" />
		<rect x="78" y="78" width="6" height="6" />
		<rect x="108" y="78" width="6" height="6" />
		<rect x="114" y="78" width="6" height="6" />
		<rect x="126" y="78" width="6" height="6" />
		<rect x="132" y="78" width="6" height="6" />
		<rect x="138" y="78" width="6" height="6" />
		<rect x="156" y="78" width="6" height="6" />
		<rect x="168" y="78" width="6" height="6" />
		<rect x="174" y="78" width="6" height="6" />
		<rect x="6" y="84" width="6" height="6" />
		<rect x="24" y="84" width="6" height="6" />
		<rect x="48" y="84" width="6" height="6" />
		<rect x="60" y="84" width="6" height="6" />
		<rect x="72" y="84" width="6" height="6" />
		<rect x="78" y="84" width="6" height="6" />
		<rect x="102" y="84" width="6" height="6" />
		<rect x="120" y="84" width="6" height="6" />
		<rect x="126" y="84" width="6" height="6" />
		<rect x="144" y="84" width="6" height="6" />
		<rect x="6" y="90" width="6" height="6" />
		<rect x="30" y="90" width="6" height="6" />
		<rect x="42" y="90" width="6" height="6" />
		<rect x="66" y="90" width="6" height="6" />
		<rect x="72" y="90" width="6" height="6" />
		<rect x="138" y="90" width="6" height="6" />
		<rect x="156" y="90" width="6" height="6" />
		<rect x="162" y="90" width="6" height="6" />
		<rect x="168" y="90" width="6" height="6" />
		<rect x="174" y="90" width="6" height="6" />
		<rect x="6" y="96" width="6" height="6" />
		<rect x="12" y="96" width="6" height="6" />
		<rect x="18" y="96" width="6" height="6" />
		<rect x="24" y="96" width="6" height="6" />
		<rect x="30" y="96" width="6" height="6" />
		<rect x="60" y="96" width="6" height="6" />
		<rect x="66" y="96" width="6" height="6" />
		<rect x="84" y="96" width="6" height="6" />
		<rect x="90" y="96" width="6" height="6" />
		<rect x="108" y="96" width="6" height="6" />
		<rect x="114" y="96" width="6" height="6" />
		<rect x="126" y="96" width="6" height="6" />
		<rect x="132" y="96" width="6" height="6" />
		<rect x="138" y="96" width="6" height="6" />
		<rect x="156" y="96" width="6" height="6" />
		<rect x="168" y="96" width="6" height="6" />
		<rect x="6" y="102" width="6" height="6" />
		<rect x="12" y="102" width="6" height="6" />
		<rect x="24" y="102" width="6" height="6" />
		<rect x="36" y="102" width="6" height="6" />
		<rect x="42" y="102" width="6" height="6" />
		<rect x="48" y="102" width="6" height="6" />
		<rect x="60" y="102" width="6" height="6" />
		<rect x="84" y="102" width="6" height="6" />
		<rect x="90" y="102" width="6" height="6" />
		<rect x="102" y="102" width="6" height="6" />
		<rect x="108" y="102" width="6" height="6" />
		<rect x="126" y="102" width="6" height="6" />
		<rect x="132" y="102" width="6" height="6" />
		<rect x="144" y="102" width="6" height="6" />
		<rect x="168" y="102" width="6" height="6" />
		<rect x="30" y="108" width="6" height="6" />
		<rect x="36" y="108" width="6" height="6" />
		<rect x="48" y="108" width="6" height="6" />
		<rect x="54" y="108" width="6" height="6" />
		<rect x="60" y="108" width="6" height="6" />
		<rect x="66" y="108" width="6" height="6" />
		<rect x="72" y="108" width="6" height="6" />
		<rect x="78" y="108" width="6" height="6" />
		<rect x="138" y="108" width="6" height="6" />
		<rect x="144" y="108" width="6" height="6" />
		<rect x="156" y="108" width="6" height="6" />
		<rect x="174" y="108" width="6" height="6" />
		<rect x="6" y="114" width="6" height="6" />
		<rect x="18" y="114" width="6" height="6" />
		<rect x="24" y="114" width="6" height="6" />
		<rect x="42" y="114" width="6" height="6" />
		<rect x="48" y="114" width="6" height="6" />
		<rect x="66" y="114" width="6" height="6" />
		<rect x="72" y="114" width="6" height="6" />
		<rect x="84" y="114" width="6" height="6" />
		<rect x="114" y="114" width="6" height="6" />
		<rect x="126" y="114" width="6" height="6" />
		<rect x="132" y="114" width="6" height="6" />
		<rect x="138" y="114" width="6" height="6" />
		<rect x="144" y="114" width="6" height="6" />
		<rect x="168" y="114" width="6" height="6" />
		<rect x="174" y="114" width="6" height="6" />
		<rect x="24" y="120" width="6" height="6" />
		<rect x="48" y="120" width="6" height="6" />
		<rect x="66" y="120" width="6" height="6" />
		<rect x="84" y="120" width="6" height="6" />
		<rect x="96" y="120" width="6" height="6" />
		<rect x="102" y="120" width="6" height="6" />
		<rect x="108" y="120" width="6" height="6" />
		<rect x="114" y="120" width="6" height="6" />
		<rect x="120" y="120" width="6" height="6" />
		<rect x="126" y="120" width="6" height="6" />
		<rect x="132" y="120" width="6" height="6" />
		<rect x="138" y="120" width="6" height="6" />
		<rect x="168" y="120" width="6" height="6" />
		<rect x="174" y="120" width="6" height="6" />
		<rect x="6" y="126" width="6" height="6" />
		<rect x="30" y="126" width="6" height="6" />
		<rect x="42" y="126" width="6" height="6" />
		<rect x="48" y="126" width="6" height="6" />
		<rect x="54" y="126" width="6" height="6" />
		<rect x="60" y="126" width="6" height="6" />
		<rect x="90" y="126" width="6" height="6" />
		<rect x="102" y="126" width="6" height="6" />
		<rect x="120" y="126" width="6" height="6" />
		<rect x="126" y="126" width="6" height="6" />
		<rect x="132" y="126" width="6" height="6" />
		<rect x="138" y="126" width="6" height="6" />
		<rect x="144" y="126" width="6" height="6" />
		<rect x="150" y="126" width="6" height="6" />
		<rect x="162" y="126" width="6" height="6" />
		<rect x="54" y="132" width="6" height="6" />
		<rect x="66" y="132" width="6" height="6" />
		<rect x="84" y="132" width="6" height="6" />
		<rect x="102" y="132" width="6" height="6" />
		<rect x="108" y="132" width="6" height="6" />
		<rect x="120" y="132" width="6" height="6" />
		<rect x="126" y="132" width="6" height="6" />
		<rect x="150" y="132" width="6" height="6" />
		<rect x="162" y="132" width="6" height="6" />
		<rect x="168" y="132" width="6" height="6" />
		<rect x="174" y="132" width="6" height="6" />
		<rect x="6" y="138" width="6" height="6" />
		<rect x="12" y="138" width="6" height="6" />
		<rect x="18" y="138" width="6" height="6" />
		<rect x="24" y="138" width="6" height="6" />
		<rect x="30" y="138" width="6" height="6" />
		<rect x="36" y="138" width="6" height="6" />
		<rect x="42" y="138" width="6" height="6" />
		<rect x="60" y="138" width="6" height="6" />
		<rect x="66" y="138" width="6" height="6" />
		<rect x="78" y="138" width="6" height="6" />
		<rect x="84" y="138" width="6" height="6" />
		<rect x="90" y="138" width="6" height="6" />
		<rect x="108" y="138" width="6" height="6" />
		<rect x="114" y="138" width="6" height="6" />
		<rect x="126" y="138" width="6" height="6" />
		<rect x="138" y="138" width="6" height="6" />
		<rect x="150" y="138" width="6" height="6" />
		<rect x="168" y="138" width="6" height="6" />
		<rect x="6" y="144" width="6" height="6" />
		<rect x="42" y="144" width="6" height="6" />
		<rect x="54" y="144" width="6" height="6" />
		<rect x="60" y="144" width="6" height="6" />
		<rect x="78" y="144" width="6" height="6" />
		<rect x="84" y="144" width="6" height="6" />
		<rect x="102" y="144" width="6" height="6" />
		<rect x="114" y="144" width="6" height="6" />
		<rect x="120" y="144" width="6" height="6" />
		<rect x="126" y="144" width="6" height="6" />
		<rect x="150" y="144" width="6" height="6" />
		<rect x="156" y="144" width="6" height="6" />
		<rect x="162" y="144" width="6" height="6" />
		<rect x="168" y="144" width="6" height="6" />
		<rect x="174" y="144" width="6" height="6" />
		<rect x="6" y="150" width="6" height="6" />
		<rect x="18" y="150" width="6" height="6" />
		<rect x="24" y="150" width="6" height="6" />
		<rect x="30" y="150" width="6" height="6" />
		<rect x="42" y="150" width="6" height="6" />
		<rect x="60" y="150" width="6" height="6" />
		<rect x="66" y="150" width="6" height="6" />
		<rect x="78" y="150" width="6" height="6" />
		<rect x="90" y="150" width="6" height="6" />
		<rect x="108" y="150" width="6" height="6" />
		<rect x="114" y="150" width="6" height="6" />
		<rect x="126" y="150" width="6" height="6" />
		<rect x="132" y="150" width="6" height="6" />
		<rect x="138" y="150" width="6" height="6" />
		<rect x="144" y="150" width="6" height="6" />
		<rect x="150" y="150" width="6" height="6" />
		<rect x="174" y="150" width="6" height="6" />
		<rect x="6" y="156" width="6" height="6" />
		<rect x="18" y="156" width="6" height="6" />
		<rect x="24" y="156" width="6" height="6" />
		<rect x="30" y="156" width="6" height="6" />
		<rect x="42" y="156" width="6" height="6" />
		<rect x="54" y="156" width="6" height="6" />
		<rect x="60" y="156" width="6" height="6" />
		<rect x="78" y="156" width="6" height="6" />
		<rect x="90" y="156" width="6" height="6" />
		<rect x="102" y="156" width="6" height="6" />
		<rect x="108" y="156" width="6" height="6" />
		<rect x="114" y="156" width="6" height="6" />
		<rect x="120" y="156" width="6" height="6" />
		<rect x="126" y="156" width="6" height="6" />
		<rect x="138" y="156" width="6" height="6" />
		<rect x="150" y="156" width="6" height="6" />
		<rect x="156" y="156" width="6" height="6" />
		<rect x="162" y="156" width="6" height="6" />
		<rect x="168" y="156" width="6" height="6" />
		<rect x="6" y="162" width="6" height="6" />
		<rect x="18" y="162" width="6" height="6" />
		<rect x="24" y="162" width="6" height="6" />
		<rect x="30" y="162" width="6" height="6" />
		<rect x="42" y="162" width="6" height="6" />
		<rect x="60" y="162" width="6" height="6" />
		<rect x="72" y="162" width="6" height="6" />
		<rect x="78" y="162" width="6" height="6" />
		<rect x="90" y="162" width="6" height="6" />
		<rect x="114" y="162" width="6" height="6" />
		<rect x="120" y="162" width="6" height="6" />
		<rect x="150" y="162" width="6" height="6" />
		<rect x="156" y="162" width="6" height="6" />
		<rect x="162" y="162" width="6" height="6" />
		<rect x="174" y="162" width="6" height="6" />
		<rect x="6" y="168" width="6" height="6" />
		<rect x="42" y="168" width="6" height="6" />
		<rect x="72" y="168" width="6" height="6" />
		<rect x="78" y="168" width="6" height="6" />
		<rect x="84" y="168" width="6" height="6" />
		<rect x="90" y="168" width="6" height="6" />
		<rect x="96" y="168" width="6" height="6" />
		<rect x="108" y="168" width="6" height="6" />
		<rect x="120" y="168" width="6" height="6" />
		<rect x="126" y="168" width="6" height="6" />
		<rect x="132" y="168" width="6" height="6" />
		<rect x="150" y="168" width="6" height="6" />
		<rect x="168" y="168" width="6" height="6" />
		<rect x="6" y="174" width="6" height="6" />
		<rect x="12" y="174" width="6" height="6" />
		<rect x="18" y="174" width="6" height="6" />
		<rect x="24" y="174" width="6" height="6" />
		<rect x="30" y="174" width="6" height="6" />
		<rect x="36" y="174" width="6" height="6" />
		<rect x="42" y="174" width="6" height="6" />
		<rect x="54" y="174" width="6" height="6" />
		<rect x="60" y="174" width="6" height="6" />
		<rect x="78" y="174" width="6" height="6" />
		<rect x="90" y="174" width="6" height="6" />
		<rect x="108" y="174" width="6" height="6" />
		<rect x="126" y="174" width="6" height="6" />
		<rect x="132" y="174" width="6" height="6" />
		<rect x="144" y="174" width="6" height="6" />
		<rect x="150" y="174" width="6" height="6" />
		<rect x="168" y="174" width="6" height="6" />
	</g>
</svg>
